<svg xmlns="http://www.w3.org/2000/svg" viewBox="0 0 894.92 159.92">
  <g transform="translate(22.00,22.00) scale(1.159200)">
    <rect width="100" height="100" rx="22" fill="#0B0C0E"/>
    <g id="mark"><rect x="21.50" y="21.50" width="9" height="57.00" rx="3" fill="#EDEDE6"/><rect x="33.50" y="44.50" width="9" height="34.00" rx="3" fill="#EDEDE6"/><rect x="45.50" y="67.50" width="9" height="11.00" rx="3" fill="#E3A62F"/><rect x="57.50" y="44.50" width="9" height="34.00" rx="3" fill="#EDEDE6"/><rect x="69.50" y="21.50" width="9" height="57.00" rx="3" fill="#EDEDE6"/></g>
  </g>
  <g transform="translate(171.92,116.32)">
    <g id="wm"><path d="M47 0V550H151V470H154Q157 510 182.0 535.0Q207 560 245 560Q282 560 308.0 536.5Q334 513 343 473Q347 513 372.5 536.5Q398 560 437 560Q487 560 520.0 520.5Q553 481 553 419V0H443V410Q443 437 430.5 452.5Q418 468 395 468Q350 468 350 410V0H250V410Q250 437 238.5 452.5Q227 468 205 468Q157 468 157 410V0Z" transform="translate(0.000,0) scale(0.120000,-0.120000)" fill="#EDEDE6"/><path d="M239 -10Q155 -10 106.5 37.5Q58 85 58 162Q58 242 113.0 289.5Q168 337 264 337H398V376Q398 459 301 459Q257 459 231.0 442.0Q205 425 202 394H82Q86 468 144.5 514.0Q203 560 302 560Q407 560 465.0 511.0Q523 462 523 373V0H401V103Q394 50 351.0 20.0Q308 -10 239 -10ZM279 92Q334 92 366.0 119.0Q398 146 398 191V256H270Q229 256 205.0 233.0Q181 210 181 174Q181 137 206.5 114.5Q232 92 279 92Z" transform="translate(72.000,0) scale(0.120000,-0.120000)" fill="#EDEDE6"/><path d="M309 -10Q238 -10 185.5 16.5Q133 43 104.0 91.5Q75 140 75 206V344Q75 410 104.0 458.5Q133 507 185.5 533.5Q238 560 309 560Q412 560 474.5 506.5Q537 453 540 361H417Q414 404 384.5 427.5Q355 451 309 451Q258 451 229.0 423.5Q200 396 200 345V206Q200 155 229.0 127.0Q258 99 309 99Q356 99 385.0 122.5Q414 146 417 189H540Q537 97 474.5 43.5Q412 -10 309 -10Z" transform="translate(144.000,0) scale(0.120000,-0.120000)" fill="#EDEDE6"/><path d="M221 0 36 550H167L273 216Q283 186 290.5 155.5Q298 125 301 103Q305 125 311.5 155.5Q318 186 327 215L432 550H564L380 0Z" transform="translate(216.000,0) scale(0.120000,-0.120000)" fill="#EDEDE6"/><path d="M301 -10Q231 -10 179.0 17.0Q127 44 98.5 93.5Q70 143 70 210V340Q70 407 98.5 456.5Q127 506 179.0 533.0Q231 560 301 560Q370 560 421.5 533.0Q473 506 501.5 457.5Q530 409 530 344V244H190V206Q190 150 219.0 121.5Q248 93 301 93Q340 93 367.5 106.5Q395 120 400 146H524Q511 75 450.0 32.5Q389 -10 301 -10ZM190 344V325L410 326V345Q410 402 382.0 433.0Q354 464 301 464Q246 464 218.0 432.5Q190 401 190 344Z" transform="translate(288.000,0) scale(0.120000,-0.120000)" fill="#EDEDE6"/><path d="M97 0V550H219V443Q229 497 268.5 528.5Q308 560 371 560Q455 560 502.0 506.0Q549 452 549 355V303H424V349Q424 399 398.0 425.5Q372 452 324 452Q274 452 248.0 422.0Q222 392 222 337V0Z" transform="translate(360.000,0) scale(0.120000,-0.120000)" fill="#EDEDE6"/><path d="M76 0V113H264V437H96V550H389V113H558V0ZM318 642Q280 642 258.0 661.5Q236 681 236 714Q236 747 258.0 766.5Q280 786 318 786Q356 786 378.0 766.5Q400 747 400 714Q400 681 378.0 661.5Q356 642 318 642Z" transform="translate(432.000,0) scale(0.120000,-0.120000)" fill="#EDEDE6"/><path d="M200 0V362H49V475H200V572Q200 644 248.0 687.0Q296 730 375 730H536V620H378Q354 620 339.5 606.5Q325 593 325 570V475H536V362H325V0Z" transform="translate(504.000,0) scale(0.120000,-0.120000)" fill="#EDEDE6"/><path d="M165 -180 243 30 36 550H168L274 269Q283 244 292.0 214.5Q301 185 305 160Q308 185 316.5 214.5Q325 244 334 269L432 550H564L296 -180Z" transform="translate(576.000,0) scale(0.120000,-0.120000)" fill="#EDEDE6"/></g>
    <rect x="659.00" y="-94.32" width="42" height="94.32" rx="3" fill="#E3A62F"/>
  </g>
</svg>